<svg version="1.1" viewBox="0 0 915.52 295.96" xmlns="http://www.w3.org/2000/svg" xmlns:xlink="http://www.w3.org/1999/xlink" overflow="hidden"><defs></defs><g id="Layer_2"><g id="Object"><rect x="250.09" y="96.5" width="40.4" height="160.8" fill="#B5C3C2"/><rect x="256.69" y="84.97" width="27.2" height="67.58" fill="#B5C3C2"/><rect x="262.74" y="77.66" width="15.09" height="37.48" fill="#B5C3C2"/><path d=" M 275.43 96.92 L 265.14 96.92 L 265.14 71.38 L 268.85 71.38 L 272.53 71.38 L 275.43 71.38 L 275.43 96.92 Z" fill="#B5C3C2"/><path d=" M 269.61 85.8 L 268.49 85.8 L 268.49 60.25 L 268.89 60.25 L 269.29 60.25 L 269.61 60.25 L 269.61 85.8 Z" fill="#B5C3C2"/><path d=" M 272.08 76.97 L 270.96 76.97 L 270.96 51.42 L 271.36 51.42 L 271.76 51.42 L 272.08 51.42 L 272.08 76.97 Z" fill="#B5C3C2"/><rect x="249.01" y="96.09" width="42.55" height="1.71" fill="#B5C3C2"/><rect x="255.69" y="84.15" width="29.18" height="1.65" fill="#B5C3C2"/><rect x="261.64" y="76.97" width="16.82" height="1.26" fill="#B5C3C2"/><rect x="259.19" y="87.71" width="1.26" height="7.08" fill="#B5C3C2" opacity="0.29"/><rect x="262.69" y="87.71" width="1.26" height="7.08" fill="#B5C3C2" opacity="0.29"/><rect x="266.18" y="87.71" width="1.26" height="7.08" fill="#B5C3C2" opacity="0.29"/><rect x="269.68" y="87.71" width="1.26" height="7.08" fill="#B5C3C2" opacity="0.29"/><rect x="273.18" y="87.71" width="1.26" height="7.08" fill="#B5C3C2" opacity="0.29"/><rect x="276.68" y="87.71" width="1.26" height="7.08" fill="#B5C3C2" opacity="0.29"/><rect x="280.18" y="87.71" width="1.26" height="7.08" fill="#B5C3C2" opacity="0.29"/><rect x="253.63" y="102.91" width="3.06" height="8.4" fill="#B5C3C2"/><rect x="259.68" y="102.91" width="3.06" height="8.4" fill="#B5C3C2" opacity="0.29"/><rect x="265.73" y="102.91" width="3.06" height="8.4" fill="#B5C3C2"/><rect x="271.78" y="102.91" width="3.06" height="8.4" fill="#B5C3C2"/><rect x="277.83" y="102.91" width="3.05" height="8.4" fill="#B5C3C2"/><rect x="283.88" y="102.91" width="3.05" height="8.4" fill="#B5C3C2"/><rect x="253.63" y="116.01" width="3.06" height="8.4" fill="#B5C3C2"/><rect x="259.68" y="116.01" width="3.06" height="8.4" fill="#B5C3C2"/><rect x="265.73" y="116.01" width="3.06" height="8.4" fill="#B5C3C2"/><rect x="271.78" y="116.01" width="3.06" height="8.4" fill="#B5C3C2" opacity="0.29"/><rect x="277.83" y="116.01" width="3.05" height="8.4" fill="#B5C3C2"/><rect x="283.88" y="116.01" width="3.05" height="8.4" fill="#B5C3C2"/><rect x="253.63" y="129.1" width="3.06" height="8.4" fill="#B5C3C2"/><rect x="259.68" y="129.1" width="3.06" height="8.4" fill="#B5C3C2"/><rect x="265.73" y="129.1" width="3.06" height="8.4" fill="#B5C3C2"/><rect x="271.78" y="129.1" width="3.06" height="8.4" fill="#B5C3C2"/><rect x="277.83" y="129.1" width="3.05" height="8.4" fill="#B5C3C2" opacity="0.29"/><rect x="283.88" y="129.1" width="3.05" height="8.4" fill="#B5C3C2" opacity="0.29"/><rect x="253.63" y="142.19" width="3.06" height="8.4" fill="#B5C3C2" opacity="0.29"/><rect x="259.68" y="142.19" width="3.06" height="8.4" fill="#B5C3C2"/><rect x="265.73" y="142.19" width="3.06" height="8.4" fill="#B5C3C2"/><rect x="271.78" y="142.19" width="3.06" height="8.4" fill="#B5C3C2"/><rect x="277.83" y="142.19" width="3.05" height="8.4" fill="#B5C3C2"/><rect x="283.88" y="142.19" width="3.05" height="8.4" fill="#B5C3C2"/><rect x="253.63" y="155.29" width="3.06" height="8.4" fill="#B5C3C2"/><rect x="259.68" y="155.29" width="3.06" height="8.4" fill="#B5C3C2" opacity="0.29"/><rect x="265.73" y="155.29" width="3.06" height="8.4" fill="#B5C3C2"/><rect x="271.78" y="155.29" width="3.06" height="8.4" fill="#B5C3C2" opacity="0.29"/><rect x="277.83" y="155.29" width="3.05" height="8.4" fill="#B5C3C2"/><rect x="283.88" y="155.29" width="3.05" height="8.4" fill="#B5C3C2"/><rect x="253.63" y="168.38" width="3.06" height="8.4" fill="#B5C3C2"/><rect x="259.68" y="168.38" width="3.06" height="8.4" fill="#B5C3C2"/><rect x="265.73" y="168.38" width="3.06" height="8.4" fill="#B5C3C2"/><rect x="271.78" y="168.38" width="3.06" height="8.4" fill="#B5C3C2"/><rect x="277.83" y="168.38" width="3.05" height="8.4" fill="#B5C3C2"/><rect x="283.88" y="168.38" width="3.05" height="8.4" fill="#B5C3C2" opacity="0.29"/><rect x="253.63" y="181.48" width="3.06" height="8.4" fill="#B5C3C2"/><rect x="259.68" y="181.48" width="3.06" height="8.4" fill="#B5C3C2" opacity="0.29"/><rect x="265.73" y="181.48" width="3.06" height="8.4" fill="#B5C3C2" opacity="0.29"/><rect x="271.78" y="181.48" width="3.06" height="8.4" fill="#B5C3C2"/><rect x="277.83" y="181.48" width="3.05" height="8.4" fill="#B5C3C2"/><rect x="283.88" y="181.48" width="3.05" height="8.4" fill="#B5C3C2"/><rect x="253.63" y="194.57" width="3.06" height="8.4" fill="#B5C3C2"/><rect x="259.68" y="194.57" width="3.06" height="8.4" fill="#B5C3C2"/><rect x="265.73" y="194.57" width="3.06" height="8.4" fill="#B5C3C2"/><rect x="271.78" y="194.57" width="3.06" height="8.4" fill="#B5C3C2"/><rect x="277.83" y="194.57" width="3.05" height="8.4" fill="#B5C3C2" opacity="0.29"/><rect x="283.88" y="194.57" width="3.05" height="8.4" fill="#B5C3C2"/><rect x="253.63" y="207.67" width="3.06" height="8.4" fill="#B5C3C2"/><rect x="259.68" y="207.67" width="3.06" height="8.4" fill="#B5C3C2" opacity="0.29"/><rect x="265.73" y="207.67" width="3.06" height="8.4" fill="#B5C3C2"/><rect x="271.78" y="207.67" width="3.06" height="8.4" fill="#B5C3C2"/><rect x="277.83" y="207.67" width="3.05" height="8.4" fill="#B5C3C2"/><rect x="283.88" y="207.67" width="3.05" height="8.4" fill="#B5C3C2"/><rect x="253.63" y="220.76" width="3.06" height="8.4" fill="#B5C3C2"/><rect x="259.68" y="220.76" width="3.06" height="8.4" fill="#B5C3C2"/><rect x="265.73" y="220.76" width="3.06" height="8.4" fill="#B5C3C2"/><rect x="271.78" y="220.76" width="3.06" height="8.4" fill="#B5C3C2" opacity="0.29"/><rect x="277.83" y="220.76" width="3.05" height="8.4" fill="#B5C3C2"/><rect x="283.88" y="220.76" width="3.05" height="8.4" fill="#B5C3C2" opacity="0.29"/><rect x="253.63" y="233.86" width="3.06" height="8.4" fill="#B5C3C2" opacity="0.29"/><rect x="259.68" y="233.86" width="3.06" height="8.4" fill="#B5C3C2"/><rect x="265.73" y="233.86" width="3.06" height="8.4" fill="#B5C3C2" opacity="0.29"/><rect x="271.78" y="233.86" width="3.06" height="8.4" fill="#B5C3C2"/><rect x="277.83" y="233.86" width="3.05" height="8.4" fill="#B5C3C2"/><rect x="283.88" y="233.86" width="3.05" height="8.4" fill="#B5C3C2"/><rect x="132.76" y="102.62" width="64.94" height="135.46" fill="#B5C3C2"/><rect x="130.91" y="100.29" width="68.63" height="3.83" fill="#B5C3C2"/><rect x="134.94" y="95.39" width="60.58" height="18.2" fill="#B5C3C2"/><rect x="139.58" y="87.94" width="23.99" height="19.88" fill="#B5C3C2"/><path d=" M 153.46 93.54 L 139.58 93.54 L 139.58 83.08 L 149.53 83.08 L 153.46 93.54 Z" fill="#B5C3C2"/><rect x="145.17" y="74.39" width="1.35" height="23.31" fill="#B5C3C2"/><path d=" M 147.05 73.18 C 147.067 73.8481 146.538 74.4031 145.87 74.4196 C 145.202 74.4362 144.647 73.9081 144.631 73.24 C 144.614 72.5719 145.142 72.0169 145.81 72.0004 C 145.82 72.0001 145.83 72 145.84 72 C 146.497 71.9998 147.034 72.5235 147.05 73.18 Z" fill="#B5C3C2"/><path d=" M 735.49 248.39 L 664.4 248.39 L 655.53 49.22 L 735.49 65.82 L 735.49 248.39 Z" fill="#B5C3C2"/><path d=" M 425.34 134.65 L 425.34 68.06 L 414.19 68.06 L 414.19 50.23 L 410.21 50.23 L 410.21 24.07 L 388.26 24.07 L 388.26 4.84 L 386.31 4.84 L 386.31 24.07 L 382.01 24.07 L 382.01 0 L 380.06 0 L 380.06 24.07 L 366.19 24.07 L 366.19 68.06 L 359.02 68.06 L 359.02 134.65 L 352.88 134.65 L 352.88 255.93 L 429.66 255.93 L 429.66 134.65 L 425.34 134.65 Z" fill="#B5C3C2"/><rect x="41.99" y="245.92" width="849.37" height="20.2" fill="#B5C3C2"/><path d=" M 541.96 261.17 L 504.35 261.17 L 519 185.86 L 541.96 185.86 L 541.96 261.17 Z" fill="#95A9A7"/><rect x="11.52" y="264.11" width="891.8" height="31.85" fill="#95A9A7"/><path d=" M 511.14 121.8 L 511.14 88.43 L 499.06 88.43 L 499.06 75.72 L 492.6 75.72 L 492.6 65.05 L 490.33 65.05 L 490.33 46.75 L 489.75 46.75 L 489.75 65.05 L 487.48 65.05 L 487.48 75.72 L 481.02 75.72 L 481.02 88.43 L 469.03 88.43 L 469.03 121.8 L 466.54 121.8 L 466.54 182.4 L 447.96 182.4 L 447.96 251.47 L 466.54 251.47 L 485.12 251.47 L 513.54 251.47 L 513.54 121.8 L 511.14 121.8 Z" fill="#95A9A7"/><path d=" M 580.54 160.14 L 522.09 160.14 L 522.09 161.2 L 524.73 161.2 L 524.73 260.05 L 577.9 260.05 L 577.9 161.2 L 580.54 161.2 L 580.54 160.14 Z" fill="#95A9A7"/><rect x="262.17" y="184.76" width="51.83" height="82.34" fill="#95A9A7"/><rect x="165.23" y="226.95" width="89.13" height="40.15" fill="#95A9A7"/><rect x="213" y="137.24" width="19.57" height="98.6" fill="#95A9A7"/><rect x="217.32" y="110.94" width="1.02" height="53.62" fill="#95A9A7"/><rect x="220.63" y="115" width="1.02" height="53.62" fill="#95A9A7"/><rect x="214.51" y="131.14" width="11.96" height="13.21" fill="#95A9A7"/><rect x="250.87" y="199.5" width="34.05" height="67.6" fill="#95A9A7"/><rect x="322.39" y="127.97" width="63.92" height="139.13" fill="#95A9A7"/><rect x="328.67" y="123.18" width="51.36" height="23.17" fill="#95A9A7"/><rect x="317.44" y="130.88" width="73.83" height="1.63" fill="#95A9A7"/><rect x="310.81" y="196.83" width="30.12" height="70.26" fill="#95A9A7"/><rect x="95.09" y="194.16" width="34.56" height="72.93" fill="#95A9A7"/><rect x="106.27" y="174.34" width="68.87" height="92.75" fill="#95A9A7"/><rect x="102.25" y="170.78" width="74.66" height="3.56" fill="#95A9A7"/><rect x="109.32" y="161.13" width="30.26" height="18.81" fill="#95A9A7"/><rect x="149.47" y="161.13" width="5.08" height="11.44" fill="#95A9A7"/><rect x="159.64" y="161.13" width="5.59" height="11.44" fill="#95A9A7"/><rect x="76.28" y="238.89" width="36.09" height="28.21" fill="#95A9A7"/><rect x="62.66" y="226.95" width="17.09" height="40.15" fill="#95A9A7"/><rect x="41.99" y="252.99" width="29.2" height="14.1" fill="#95A9A7"/><rect x="380.03" y="235.84" width="359.85" height="31.26" fill="#95A9A7"/><path d=" M 711.15 149.32 C 708.888 149.319 707.008 151.064 706.84 153.32 L 701.78 153.15 C 701.78 152.66 701.78 152.15 701.78 151.66 C 701.789 145.458 700.713 139.301 698.6 133.47 L 702.84 131.91 C 703.792 134.092 706.333 135.088 708.514 134.136 C 710.696 133.183 711.692 130.643 710.74 128.461 C 709.788 126.28 707.247 125.283 705.066 126.236 C 703.494 126.922 702.478 128.475 702.48 130.19 C 702.481 130.62 702.545 131.048 702.67 131.46 L 698.46 133 C 696.018 126.468 692.315 120.481 687.56 115.38 L 690.87 112.28 C 692.593 113.914 695.315 113.842 696.949 112.118 C 698.583 110.395 698.511 107.674 696.787 106.04 C 695.064 104.405 692.343 104.478 690.708 106.201 C 689.202 107.789 689.13 110.256 690.54 111.93 L 687.23 115.03 C 686.89 114.67 686.54 114.31 686.23 113.96 C 681.301 109.013 675.447 105.085 669 102.4 L 670.81 98 C 673.085 98.7176 675.512 97.4548 676.229 95.1794 C 676.947 92.904 675.684 90.4777 673.409 89.7601 C 671.133 89.0425 668.707 90.3053 667.989 92.5807 C 667.328 94.6788 668.348 96.9391 670.36 97.83 L 668.54 102.25 C 662.79 99.9275 656.678 98.628 650.48 98.41 L 650.68 92.35 L 650.82 92.35 C 653.189 92.1788 654.97 90.1198 654.799 87.7512 C 654.628 85.3825 652.569 83.6012 650.2 83.7724 C 647.831 83.9436 646.05 86.0025 646.221 88.3712 C 646.375 90.5016 648.07 92.196 650.2 92.35 L 650 98.44 C 649.51 98.44 649 98.44 648.51 98.44 C 642.557 98.3976 636.639 99.3507 631 101.26 L 629.25 96.26 C 631.398 95.3562 632.407 92.882 631.503 90.7337 C 630.599 88.5855 628.125 87.5767 625.977 88.4805 C 623.829 89.3843 622.82 91.8584 623.724 94.0067 C 624.556 95.9849 626.74 97.0234 628.8 96.42 L 630.54 101.42 C 623.742 103.853 617.511 107.647 612.23 112.57 L 609.07 109.2 C 610.688 107.447 610.579 104.714 608.826 103.095 C 608.026 102.358 606.978 101.949 605.89 101.95 C 603.499 101.945 601.556 103.879 601.55 106.27 C 601.545 108.662 603.479 110.605 605.87 110.61 C 606.922 110.612 607.938 110.232 608.73 109.54 L 611.88 112.9 L 610.81 113.9 C 606.418 118.284 602.824 123.401 600.19 129.02 L 596.19 127.16 C 596.343 126.72 596.421 126.256 596.42 125.79 C 596.416 123.41 594.484 121.483 592.103 121.487 C 589.723 121.49 587.796 123.423 587.8 125.803 C 587.804 128.184 589.736 130.11 592.117 130.107 C 593.793 130.104 595.315 129.13 596.02 127.61 L 600.02 129.45 C 597.128 135.793 595.514 142.643 595.27 149.61 L 590.12 149.44 C 589.987 147.069 587.958 145.254 585.587 145.387 C 583.216 145.519 581.401 147.549 581.533 149.92 C 581.666 152.291 583.696 154.106 586.067 153.973 C 588.253 153.851 589.998 152.106 590.12 149.92 L 595.27 150.09 C 595.27 150.59 595.27 151.09 595.27 151.58 C 595.264 157.785 596.336 163.943 598.44 169.78 L 594.21 171.33 C 593.268 169.132 590.723 168.114 588.525 169.056 C 586.326 169.997 585.308 172.543 586.25 174.741 C 587.192 176.939 589.737 177.957 591.936 177.015 C 593.523 176.335 594.554 174.777 594.56 173.05 C 594.562 172.62 594.501 172.192 594.38 171.78 L 598.61 170.23 C 601.05 176.76 604.754 182.744 609.51 187.84 L 606.19 190.94 C 604.467 189.306 601.745 189.378 600.111 191.102 C 598.477 192.825 598.549 195.546 600.273 197.18 C 601.996 198.815 604.717 198.742 606.352 197.019 C 607.858 195.431 607.93 192.964 606.52 191.29 L 609.83 188.19 C 610.18 188.55 610.52 188.91 610.83 189.26 C 614.158 192.606 617.914 195.498 622 197.86 L 595.93 245.92 L 591.25 245.92 L 591.25 247.3 L 588.95 247.3 L 588.95 250 L 708.08 250 L 708.08 247.3 L 705.79 247.3 L 705.79 245.92 L 701.11 245.92 L 675 197.86 C 678.505 195.839 681.769 193.427 684.73 190.67 L 688.96 195.18 C 687.204 196.737 687.042 199.423 688.599 201.18 C 690.156 202.936 692.842 203.098 694.598 201.541 C 696.355 199.984 696.517 197.298 694.96 195.541 C 693.527 193.925 691.109 193.64 689.34 194.88 L 685.08 190.34 L 686.15 189.34 C 690.545 184.956 694.142 179.84 696.78 174.22 L 701.48 176.4 C 701.399 176.727 701.356 177.063 701.35 177.4 C 701.343 179.791 703.277 181.735 705.668 181.742 C 708.059 181.748 710.003 179.815 710.01 177.424 C 710.016 175.032 708.083 173.088 705.692 173.082 C 703.887 173.077 702.268 174.192 701.63 175.88 L 697 173.75 C 699.888 167.406 701.499 160.556 701.74 153.59 L 706.81 153.76 C 706.876 156.145 708.863 158.025 711.248 157.958 C 713.633 157.892 715.513 155.905 715.447 153.52 C 715.382 151.182 713.469 149.321 711.13 149.32 Z M 700.36 151.62 C 700.36 152.1 700.36 152.62 700.36 153.07 L 685.44 152.58 C 685.44 152.26 685.44 151.94 685.44 151.58 C 685.445 147.308 684.704 143.067 683.25 139.05 L 697.25 133.88 C 699.313 139.567 700.366 145.571 700.36 151.62 Z M 684.7 152.56 L 651.42 151.47 C 651.409 151.26 651.372 151.051 651.31 150.85 L 682.56 139.34 C 683.985 143.277 684.713 147.433 684.71 151.62 C 684.71 151.93 684.7 152.25 684.7 152.56 Z M 612.33 150.69 L 645.61 151.77 C 645.619 151.983 645.652 152.195 645.71 152.4 L 614.46 163.9 C 613.037 159.963 612.313 155.807 612.32 151.62 C 612.32 151.31 612.32 151 612.33 150.69 Z M 650.79 149.82 L 675.07 127.06 C 678.253 130.494 680.742 134.511 682.4 138.89 L 651.15 150.39 C 651.052 150.187 650.931 149.996 650.79 149.82 Z M 650.46 149.46 C 650.271 149.293 650.063 149.149 649.84 149.03 L 662.48 118.23 C 667.112 120.178 671.29 123.065 674.75 126.71 Z M 649.39 148.85 C 649.215 148.79 649.034 148.75 648.85 148.73 L 649.93 115.45 C 654.086 115.615 658.183 116.494 662.04 118.05 Z M 648.39 148.72 C 648.191 148.729 647.993 148.759 647.8 148.81 L 636.71 117.4 C 640.504 116.08 644.493 115.404 648.51 115.4 L 649.45 115.4 Z M 647.39 148.97 C 647.171 149.066 646.966 149.19 646.78 149.34 L 624 125.06 C 627.561 121.767 631.742 119.218 636.3 117.56 Z M 646.39 149.67 C 646.244 149.828 646.116 150.002 646.01 150.19 L 615.78 136.19 C 617.705 132.123 620.366 128.447 623.63 125.35 Z M 645.81 150.67 C 645.731 150.886 645.677 151.111 645.65 151.34 L 612.38 150.25 C 612.554 145.574 613.641 140.978 615.58 136.72 Z M 645.91 152.9 C 645.986 153.066 646.08 153.224 646.19 153.37 L 645.99 153.74 L 621.99 176.23 C 618.81 172.796 616.324 168.779 614.67 164.4 Z M 645.26 155.08 L 630.19 182.86 C 627.284 181.143 624.632 179.029 622.31 176.58 Z M 646.9 154.08 C 647.003 154.149 647.11 154.213 647.22 154.27 L 634.54 185 C 633.325 184.49 632.14 183.913 630.99 183.27 Z M 647.66 154.45 C 647.838 154.51 648.023 154.55 648.21 154.57 L 647.13 187.85 C 642.973 187.692 638.875 186.813 635.02 185.25 Z M 648.54 187.88 L 647.61 187.88 L 648.69 154.59 C 648.889 154.58 649.087 154.55 649.28 154.5 L 660.35 185.91 C 656.537 187.203 652.536 187.848 648.51 187.82 Z M 649.73 154.33 C 649.89 154.261 650.044 154.177 650.19 154.08 L 666 183.28 C 664.316 184.225 662.557 185.027 660.74 185.68 Z M 652.4 156.15 L 673.1 178.24 C 671.206 180.002 669.127 181.554 666.9 182.87 Z M 651.5 154.48 L 650.9 153.38 C 650.965 153.295 651.022 153.205 651.07 153.11 L 681.3 167.11 C 679.377 171.178 676.719 174.857 673.46 177.96 Z M 651.27 152.68 C 651.349 152.467 651.403 152.246 651.43 152.02 L 684.68 153 C 684.504 157.676 683.414 162.273 681.47 166.53 Z M 634.27 185.74 L 628.59 199.57 C 626.853 198.852 625.157 198.037 623.51 197.13 L 630.65 183.98 C 631.824 184.614 633.032 185.182 634.27 185.68 Z M 634.71 185.92 C 638.647 187.508 642.828 188.404 647.07 188.57 L 646.59 203.49 C 640.549 203.263 634.596 201.976 629 199.69 Z M 647.55 188.59 L 648.55 188.59 C 652.633 188.595 656.689 187.919 660.55 186.59 L 665.55 200.69 C 660.081 202.577 654.335 203.537 648.55 203.53 C 648.07 203.53 647.55 203.53 647.11 203.53 Z M 661 186.36 C 662.853 185.692 664.648 184.876 666.37 183.92 L 673.5 197.07 C 671.086 198.402 668.568 199.536 665.97 200.46 Z M 697.1 133.47 L 683.1 138.64 C 681.416 134.171 678.879 130.071 675.63 126.57 L 686.54 116.35 C 691.15 121.31 694.742 127.126 697.11 133.47 Z M 685.17 115 C 685.51 115.34 685.85 115.69 686.17 116 L 675.26 126.22 C 671.735 122.498 667.475 119.549 662.75 117.56 L 668.43 103.73 C 674.695 106.352 680.383 110.181 685.17 115 Z M 668 103.55 L 662.32 117.38 C 658.396 115.795 654.229 114.898 650 114.73 L 650.49 99.81 C 656.5 100.027 662.426 101.292 668 103.55 Z M 648.52 99.78 C 649.01 99.78 649.52 99.78 649.97 99.78 L 649.48 114.7 L 648.48 114.7 C 644.397 114.699 640.342 115.374 636.48 116.7 L 631.48 102.6 C 636.959 100.716 642.716 99.7628 648.51 99.78 Z M 631.05 102.78 L 636.05 116.88 C 631.399 118.568 627.132 121.169 623.5 124.53 L 613.28 113.63 C 618.39 108.85 624.419 105.158 631 102.78 Z M 611.85 115 L 612.85 114 L 623.07 124.91 C 619.742 128.074 617.03 131.827 615.07 135.98 L 601.49 129.71 C 604.062 124.242 607.568 119.264 611.85 115 Z M 601.32 130.1 L 614.9 136.37 C 612.921 140.717 611.811 145.408 611.63 150.18 L 596.7 149.7 C 596.936 142.926 598.506 136.266 601.32 130.1 Z M 596.67 151.62 C 596.67 151.14 596.67 150.62 596.67 150.18 L 611.59 150.66 C 611.59 150.98 611.59 151.3 611.59 151.66 C 611.584 155.932 612.325 160.173 613.78 164.19 L 599.78 169.36 C 597.721 163.672 596.669 157.669 596.67 151.62 Z M 599.92 169.77 L 613.92 164.6 C 615.608 169.068 618.144 173.166 621.39 176.67 L 610.49 186.89 C 605.876 181.933 602.284 176.116 599.92 169.77 Z M 611.85 188.28 C 611.51 187.94 611.18 187.59 610.85 187.28 L 621.75 177 C 624.128 179.499 626.84 181.656 629.81 183.41 L 622.68 196.56 C 618.722 194.287 615.081 191.503 611.85 188.28 Z M 700 245.92 L 597 245.92 L 622.82 198.33 C 624.508 199.268 626.247 200.109 628.03 200.85 L 626.21 205.28 C 625.786 205.148 625.344 205.08 624.9 205.08 C 622.52 205.087 620.596 207.022 620.603 209.403 C 620.61 211.783 622.545 213.707 624.926 213.7 C 627.306 213.693 629.23 211.758 629.223 209.377 C 629.218 207.677 628.214 206.139 626.66 205.45 L 628.47 201.03 C 634.221 203.35 640.332 204.65 646.53 204.87 L 646.38 209.41 C 644.02 209.543 642.214 211.563 642.347 213.923 C 642.479 216.283 644.5 218.089 646.86 217.957 C 649.22 217.824 651.026 215.803 650.893 213.443 C 650.771 211.268 649.035 209.532 646.86 209.41 L 647.01 204.87 C 647.51 204.87 648.01 204.87 648.5 204.87 C 654.452 204.894 660.367 203.924 666 202 L 667.55 206.41 C 665.391 207.425 664.462 209.998 665.477 212.157 C 666.491 214.316 669.064 215.245 671.224 214.23 C 673.383 213.215 674.311 210.642 673.297 208.483 C 672.584 206.965 671.057 205.997 669.38 206 C 668.91 205.999 668.444 206.077 668 206.23 L 666.45 201.84 C 669.12 200.887 671.708 199.72 674.19 198.35 Z M 674.33 196.59 L 667.19 183.44 C 669.472 182.093 671.604 180.508 673.55 178.71 L 683.77 189.62 C 680.901 192.288 677.741 194.626 674.35 196.59 Z M 685.15 188.28 L 684.15 189.28 L 673.93 178.37 C 677.264 175.211 679.977 171.457 681.93 167.3 L 695.52 173.57 C 692.951 179.037 689.448 184.015 685.17 188.28 Z M 695.69 173.14 L 682.11 166.87 C 684.09 162.524 685.201 157.832 685.38 153.06 L 700.3 153.55 C 700.068 160.318 698.508 166.974 695.71 173.14 Z" fill="#95A9A7"/><rect x="721.59" y="185.68" width="55.57" height="81.42" fill="#95A9A7"/><rect x="769.02" y="217.33" width="55.57" height="49.3" fill="#95A9A7"/><rect x="553.53" y="210.09" width="31.17" height="41.38" fill="#95A9A7"/><rect x="749.37" y="108.25" width="39.3" height="158.85" fill="#95A9A7"/><path d=" M 853.39 267.1 L 801.55 267.1 L 801.55 174.34 L 840.86 174.34 L 853.39 267.1 Z" fill="#95A9A7"/><rect x="830.69" y="245.92" width="45.4" height="21.17" fill="#95A9A7"/><rect x="778.51" y="75.06" width="1.36" height="43.17" fill="#95A9A7"/><rect x="783.08" y="84.33" width="1.36" height="43.17" fill="#95A9A7"/><rect x="774.36" y="90.29" width="1.36" height="43.17" fill="#95A9A7"/><rect x="803.58" y="166.85" width="18.55" height="14.61" fill="#95A9A7"/><rect x="805.62" y="161.64" width="14.49" height="8.21" fill="#95A9A7"/><rect x="829.5" y="171.13" width="3.56" height="5.9" fill="#95A9A7"/><rect x="834.32" y="165.74" width="5.08" height="11.28" fill="#95A9A7"/><rect x="553.37" y="144.08" width="47.12" height="151.88" fill="#658280"/><rect x="549.85" y="144.98" width="54.16" height="1.54" fill="#658280"/><rect x="551.31" y="166.32" width="51.23" height="1.53" fill="#658280"/><rect x="551.31" y="186.98" width="51.23" height="1.53" fill="#658280"/><rect x="551.31" y="207.64" width="51.23" height="1.53" fill="#658280"/><rect x="551.31" y="228.3" width="51.23" height="1.53" fill="#658280"/><rect x="551.31" y="248.96" width="51.23" height="1.53" fill="#658280"/><rect x="551.31" y="269.62" width="51.23" height="1.53" fill="#658280"/><rect x="548.06" y="140.79" width="57.74" height="4.2" fill="#658280"/><rect x="557.61" y="151.51" width="4.9" height="12.13" fill="#658280" opacity="0.29"/><rect x="568.56" y="151.51" width="4.9" height="12.13" fill="#658280"/><rect x="579.51" y="151.51" width="4.9" height="12.13" fill="#658280"/><rect x="590.46" y="151.51" width="4.9" height="12.13" fill="#658280"/><rect x="557.61" y="171.35" width="4.9" height="12.13" fill="#658280"/><rect x="568.56" y="171.35" width="4.9" height="12.13" fill="#658280" opacity="0.29"/><rect x="579.51" y="171.35" width="4.9" height="12.13" fill="#658280"/><rect x="590.46" y="171.35" width="4.9" height="12.13" fill="#658280"/><rect x="557.61" y="192.01" width="4.9" height="12.13" fill="#658280"/><rect x="568.56" y="192.01" width="4.9" height="12.13" fill="#658280"/><rect x="579.51" y="192.01" width="4.9" height="12.13" fill="#658280"/><rect x="590.46" y="192.01" width="4.9" height="12.13" fill="#658280" opacity="0.29"/><rect x="557.61" y="212.67" width="4.9" height="12.13" fill="#658280"/><rect x="568.56" y="212.67" width="4.9" height="12.13" fill="#658280" opacity="0.29"/><rect x="579.51" y="212.67" width="4.9" height="12.13" fill="#658280" opacity="0.29"/><rect x="590.46" y="212.67" width="4.9" height="12.13" fill="#658280"/><rect x="557.61" y="233.33" width="4.9" height="12.13" fill="#658280" opacity="0.29"/><rect x="568.56" y="233.33" width="4.9" height="12.13" fill="#658280"/><rect x="579.51" y="233.33" width="4.9" height="12.13" fill="#658280"/><rect x="590.46" y="233.33" width="4.9" height="12.13" fill="#658280"/><rect x="557.61" y="253.99" width="4.9" height="12.13" fill="#658280"/><rect x="568.56" y="253.99" width="4.9" height="12.13" fill="#658280"/><rect x="579.51" y="253.99" width="4.9" height="12.13" fill="#658280" opacity="0.29"/><rect x="590.46" y="253.99" width="4.9" height="12.13" fill="#658280"/><rect x="557.61" y="274.65" width="4.9" height="12.13" fill="#658280"/><rect x="568.56" y="274.65" width="4.9" height="12.13" fill="#658280" opacity="0.29"/><rect x="579.51" y="274.65" width="4.9" height="12.13" fill="#658280"/><rect x="590.46" y="274.65" width="4.9" height="12.13" fill="#658280" opacity="0.29"/><rect x="556.34" y="135" width="16.03" height="7.89" fill="#658280"/><rect x="555.26" y="134.77" width="18.2" height="1.35" fill="#658280"/><path d=" M 485.83 295.96 L 423.07 295.96 L 423.07 151.66 L 485.83 136.3 L 485.83 295.96 Z" fill="#658280"/><rect x="420.31" y="149.12" width="5.51" height="146.85" fill="#658280"/><rect x="436" y="144.98" width="5.52" height="150.98" fill="#658280"/><rect x="451.69" y="140.68" width="5.51" height="155.28" fill="#658280"/><rect x="467.39" y="137.18" width="5.51" height="158.78" fill="#658280"/><rect x="483.08" y="133.45" width="5.51" height="162.51" fill="#658280"/><rect x="427.25" y="161.44" width="7.32" height="11.15" fill="#658280" opacity="0.29"/><rect x="442.95" y="161.44" width="7.32" height="11.15" fill="#658280" opacity="0.29"/><rect x="458.64" y="161.44" width="7.32" height="11.15" fill="#658280"/><rect x="474.33" y="161.44" width="7.32" height="11.15" fill="#658280" opacity="0.29"/><rect x="427.25" y="180.86" width="7.32" height="11.15" fill="#658280"/><rect x="442.95" y="180.86" width="7.32" height="11.15" fill="#658280"/><rect x="458.64" y="180.86" width="7.32" height="11.15" fill="#658280" opacity="0.29"/><rect x="474.33" y="180.86" width="7.32" height="11.15" fill="#658280" opacity="0.29"/><rect x="427.25" y="200.28" width="7.32" height="11.15" fill="#658280" opacity="0.29"/><rect x="442.95" y="200.28" width="7.32" height="11.15" fill="#658280" opacity="0.29"/><rect x="458.64" y="200.28" width="7.32" height="11.15" fill="#658280" opacity="0.29"/><rect x="474.33" y="200.28" width="7.32" height="11.15" fill="#658280"/><rect x="427.25" y="219.69" width="7.32" height="11.15" fill="#658280" opacity="0.29"/><rect x="442.95" y="219.69" width="7.32" height="11.15" fill="#658280"/><rect x="458.64" y="219.69" width="7.32" height="11.15" fill="#658280" opacity="0.29"/><rect x="474.33" y="219.69" width="7.32" height="11.15" fill="#658280" opacity="0.29"/><rect x="427.25" y="239.11" width="7.32" height="11.15" fill="#658280" opacity="0.29"/><rect x="442.95" y="239.11" width="7.32" height="11.15" fill="#658280" opacity="0.29"/><rect x="458.64" y="239.11" width="7.32" height="11.15" fill="#658280"/><rect x="474.33" y="239.11" width="7.32" height="11.15" fill="#658280" opacity="0.29"/><rect x="427.25" y="258.53" width="7.32" height="11.15" fill="#658280"/><rect x="442.95" y="258.53" width="7.32" height="11.15" fill="#658280"/><rect x="458.64" y="258.53" width="7.32" height="11.15" fill="#658280" opacity="0.29"/><rect x="474.33" y="258.53" width="7.32" height="11.15" fill="#658280" opacity="0.29"/><rect x="427.25" y="277.95" width="7.32" height="11.15" fill="#658280" opacity="0.29"/><rect x="442.95" y="277.95" width="7.32" height="11.15" fill="#658280"/><rect x="458.64" y="277.95" width="7.32" height="11.15" fill="#658280" opacity="0.29"/><rect x="474.33" y="277.95" width="7.32" height="11.15" fill="#658280"/><path d=" M 244.02 158.57 L 244.02 160.07 L 242.52 160.07 L 242.52 164.34 L 268.79 164.34 L 268.79 295.96 L 225.69 295.96 L 225.69 171.2 L 225.69 164.34 L 225.69 160.07 L 224.13 160.07 L 224.13 158.57 L 244.02 158.57 Z" fill="#658280"/><rect x="317.44" y="218.36" width="36.92" height="77.61" fill="#658280"/><rect x="156.54" y="200.57" width="30.01" height="95.4" fill="#658280"/><rect x="180.6" y="220.44" width="32.7" height="75.52" fill="#658280"/><rect x="167.34" y="196.74" width="13.27" height="11.42" fill="#658280"/><rect x="182.85" y="219.2" width="34.86" height="2.79" fill="#658280"/><rect x="209.79" y="252.83" width="36.66" height="43.13" fill="#658280"/><rect x="91.3" y="217.75" width="29.82" height="78.21" fill="#658280"/><rect x="65.42" y="256.73" width="39.23" height="39.23" fill="#658280"/><rect x="22.22" y="250.31" width="24.54" height="45.65" fill="#658280"/><rect x="41.99" y="281.66" width="58" height="14.3" fill="#658280"/><rect x="0" y="277.04" width="29.73" height="18.92" fill="#658280"/><rect x="121.12" y="267.1" width="46.21" height="28.86" fill="#658280"/><rect x="256.69" y="283.53" width="71.99" height="12.43" fill="#658280"/><rect x="384.32" y="283.53" width="71.99" height="12.43" fill="#658280"/><path d=" M 325.87 247.02 L 298.51 247.02 L 286.94 289.74 L 325.87 289.74 L 325.87 247.02 Z" fill="#658280"/><rect x="338.52" y="184.86" width="0.76" height="47.39" fill="#658280"/><rect x="342.33" y="200.9" width="1.02" height="27.97" fill="#658280"/><rect x="336.88" y="205.85" width="13.84" height="13.84" fill="#658280"/><rect x="334.54" y="204.78" width="18.33" height="1.24" fill="#658280"/><rect x="347.64" y="255.93" width="44.73" height="40.03" fill="#658280"/><rect x="383.81" y="211.87" width="28.74" height="77.23" fill="#658280"/><rect x="496.05" y="226.39" width="45.91" height="69.57" fill="#658280"/><rect x="481.65" y="270.33" width="52.35" height="25.64" fill="#658280"/><rect x="539.42" y="286.79" width="34.04" height="9.18" fill="#658280"/><rect x="591.85" y="270.33" width="55.34" height="25.64" fill="#658280"/><rect x="613.9" y="203.21" width="68.87" height="92.75" fill="#658280" transform="matrix(-1,1.22465e-16,-1.22465e-16,-1,1296.66,499.17)"/><rect x="612.12" y="199.65" width="74.66" height="3.56" fill="#658280" transform="matrix(-1,1.22465e-16,-1.22465e-16,-1,1298.9,402.85)"/><rect x="649.45" y="189.99" width="30.26" height="18.81" fill="#658280" transform="matrix(-1,1.22465e-16,-1.22465e-16,-1,1329.16,398.79)"/><rect x="634.48" y="189.99" width="5.08" height="11.44" fill="#658280" transform="matrix(-1,1.22465e-16,-1.22465e-16,-1,1274.04,391.42)"/><rect x="623.81" y="189.99" width="5.59" height="11.44" fill="#658280" transform="matrix(-1,1.22465e-16,-1.22465e-16,-1,1253.2,391.42)"/><rect x="730.1" y="160.5" width="54.51" height="135.46" fill="#658280" transform="matrix(-1,1.22465e-16,-1.22465e-16,-1,1514.72,456.46)"/><rect x="728.56" y="158.17" width="57.61" height="3.83" fill="#658280" transform="matrix(-1,1.22465e-16,-1.22465e-16,-1,1514.72,320.16)"/><rect x="731.94" y="153.27" width="50.85" height="18.2" fill="#658280" transform="matrix(-1,1.22465e-16,-1.22465e-16,-1,1514.72,324.73)"/><rect x="758.76" y="145.82" width="20.14" height="19.88" fill="#658280" transform="matrix(-1,1.22465e-16,-1.22465e-16,-1,1537.65,311.52)"/><path d=" M 767.24 151.43 L 778.89 151.43 L 778.89 140.96 L 770.53 140.96 L 767.24 151.43 Z" fill="#658280"/><rect x="773.07" y="132.27" width="1.13" height="23.31" fill="#658280" transform="matrix(-1,1.22465e-16,-1.22465e-16,-1,1547.26,287.85)"/><path d=" M 772.62 131.06 C 772.736 131.6 773.268 131.944 773.808 131.827 C 774.348 131.711 774.691 131.179 774.575 130.639 C 774.478 130.187 774.083 129.86 773.62 129.85 C 773.013 129.913 772.568 130.451 772.62 131.06 Z" fill="#658280"/><rect x="777.15" y="240.04" width="24.4" height="55.92" fill="#658280"/><rect x="707.66" y="212.77" width="27.82" height="83.19" fill="#658280"/><path d=" M 721.59 295.96 L 682.39 295.96 L 682.39 251.47 L 715.47 266.12 L 721.59 295.96 Z" fill="#658280"/><rect x="793.54" y="271.8" width="59.85" height="24.16" fill="#658280"/><rect x="831.28" y="199.5" width="34.77" height="96.46" fill="#658280"/><rect x="857.92" y="277.95" width="57.6" height="18.01" fill="#658280"/><rect x="829.5" y="197.73" width="38.14" height="3.16" fill="#658280"/><rect x="860.63" y="184.12" width="0.76" height="19.44" fill="#658280"/><rect x="855.55" y="186.58" width="0.76" height="15.59" fill="#658280"/><path d=" M 878.92 235.84 L 863.42 235.84 L 863.42 280.03 L 885.53 280.03 L 878.92 235.84 Z" fill="#658280"/></g></g></svg>